# xmcd CD database file
#
# Track frame offsets:
#	182
#	35470
#	69295
#	114295
#	161657
#	200132
#
# Disc length: 3177 seconds
#
# Revision: 0
# Processed by: cddbd v1.5.2PL0 Copyright (c) Steve Scherf et al.
# Submitted via: CDex 1.50
#
DISCID=4b0c6706
DTITLE=Dexter Gordon - Those Were The Days
DYEAR=1967
DGENRE=Jazz
TTITLE0=The Shadow of Your Smile
TTITLE1=Soy Califas
TTITLE2=Those Were the Days
TTITLE3=Fried Bananas
TTITLE4=The Rainbow People
TTITLE5=Buzzy
EXTD=YEAR: 1967
EXTT0=
EXTT1=
EXTT2=
EXTT3=
EXTT4=
EXTT5=
PLAYORDER=
